{"glyphs":{"0":{"ha":1215,"x_min":404,"x_max":1174,"o":"m 1111 53 q 1138 54 1113 54 l 1163 54 l 1167 50 q 1163 25 1174 43 q 1144 -1 1157 18 q 975 -293 1050 -143 q 613 -1811 672 -897 q 593 -2394 593 -2081 q 585 -2457 593 -2453 q 422 -2457 572 -2462 q 413 -2457 414 -2457 q 404 -2425 406 -2453 q 404 -2358 404 -2410 q 438 -1728 408 -2026 q 1090 29 549 -628 q 1111 53 1100 42 z "},"1":{"ha":1215,"x_min":39,"x_max":810,"o":"m 50 53 l 101 53 l 103 53 q 124 29 114 42 q 760 -1583 629 -585 q 810 -2358 804 -1926 q 801 -2457 810 -2451 l 631 -2457 l 629 -2457 q 621 -2431 621 -2454 q 621 -2394 621 -2421 q 613 -2022 621 -2193 q 335 -506 578 -1114 q 307 -440 321 -474 q 71 -4 207 -208 q 44 38 44 36 q 50 53 39 47 z "},"2":{"ha":926,"x_min":436,"x_max":932,"o":"m 436 -1194 l 436 54 l 685 54 l 932 54 l 932 -11 l 932 -76 l 750 -76 l 567 -76 l 567 -1260 l 567 -2444 l 501 -2444 l 436 -2444 l 436 -1194 z "},"3":{"ha":926,"x_min":-7,"x_max":489,"o":"m -7 -11 l -7 54 l 242 54 l 489 54 l 489 -1194 l 489 -2444 l 424 -2444 l 358 -2444 l 358 -1260 l 358 -76 l 176 -76 l -7 -76 l -7 -11 z "},"4":{"ha":926,"x_min":436,"x_max":932,"o":"m 436 -1193 l 436 56 l 501 56 l 567 56 l 567 -1128 l 567 -2312 l 750 -2312 l 932 -2312 l 932 -2378 l 932 -2443 l 685 -2443 l 436 -2443 l 436 -1193 z "},"5":{"ha":926,"x_min":-7,"x_max":489,"o":"m 358 -1128 l 358 56 l 424 56 l 489 56 l 489 -1193 l 489 -2443 l 242 -2443 l -7 -2443 l -7 -2378 l -7 -2312 l 176 -2312 l 358 -2312 l 358 -1128 z "},"6":{"ha":926,"x_min":436,"x_max":567,"o":"m 436 -417 l 436 1 l 501 1 l 567 1 l 567 -417 l 567 -835 l 501 -835 l 436 -835 l 436 -417 z "},"7":{"ha":926,"x_min":358,"x_max":489,"o":"m 358 -417 l 358 1 l 424 1 l 489 1 l 489 -417 l 489 -835 l 424 -835 l 358 -835 l 358 -417 z "},"8":{"ha":1235,"x_min":533,"x_max":997,"o":"m 922 -11 l 940 -1 l 964 -1 l 989 -1 l 993 -6 l 997 -10 l 997 -33 q 996 -61 997 -60 q 978 -75 988 -69 q 728 -431 794 -201 q 708 -521 715 -475 q 700 -722 701 -565 l 700 -917 q 699 -1256 700 -1253 q 668 -1264 696 -1262 q 617 -1264 657 -1264 q 542 -1262 544 -1264 q 536 -1257 538 -1261 q 533 -931 533 -1243 q 535 -589 533 -601 q 603 -339 543 -461 q 758 -129 661 -222 q 922 -11 828 -64 z "},"9":{"ha":1235,"x_min":236,"x_max":700,"o":"m 243 -3 q 269 -1 246 -1 l 293 -1 l 308 -10 q 604 -289 494 -111 q 653 -389 636 -347 q 699 -589 693 -489 q 700 -931 700 -601 q 692 -1262 700 -1258 q 617 -1264 689 -1264 q 535 -1256 539 -1264 q 533 -917 533 -1253 q 531 -561 532 -578 q 497 -404 519 -471 q 256 -75 429 -196 q 238 -61 246 -69 q 236 -35 236 -60 q 243 -3 236 -8 z "}," ":{"ha":91019,"x_min":0,"x_max":0,"o":""},"!":{"ha":1100,"x_min":46,"x_max":769,"o":"m 53 54 l 101 54 l 103 54 q 165 -14 111 50 q 564 -692 415 -296 q 761 -1707 728 -1129 q 769 -2026 769 -1847 q 761 -2346 769 -2207 q 564 -3361 728 -2926 q 165 -4040 415 -3757 q 103 -4108 111 -4104 l 53 -4108 q 46 -4096 46 -4106 q 71 -4060 46 -4092 q 231 -3822 156 -3951 q 588 -2475 532 -3293 q 600 -2026 600 -2286 q 596 -1735 600 -1829 q 399 -599 568 -1068 q 71 6 278 -261 q 46 43 46 39 q 53 54 46 50 z "},"\"":{"ha":810,"x_min":368,"x_max":807,"o":"m 368 -2026 l 368 56 l 588 56 l 807 56 l 807 0 l 807 -57 l 644 -57 l 481 -57 l 481 -2026 l 481 -3996 l 644 -3997 l 807 -3997 l 807 -4053 l 807 -4110 l 588 -4110 l 368 -4108 l 368 -2026 z "},"#":{"ha":810,"x_min":1,"x_max":440,"o":"m 1 0 l 1 56 l 221 56 l 440 56 l 440 -2026 l 440 -4108 l 221 -4110 l 1 -4110 l 1 -4053 l 1 -3997 l 165 -3997 l 328 -3996 l 328 -2026 l 328 -57 l 165 -57 l 1 -57 l 1 0 z "},"$":{"ha":888,"x_min":368,"x_max":885,"o":"m 368 -2026 l 368 56 l 425 56 l 481 56 l 481 -1971 l 481 -3996 l 683 -3997 l 885 -3997 l 885 -4053 l 885 -4110 l 626 -4110 l 368 -4108 l 368 -2026 z "},"%":{"ha":888,"x_min":1,"x_max":518,"o":"m 406 -1971 l 406 56 l 463 56 l 518 56 l 518 -2026 l 518 -4108 l 260 -4110 l 1 -4110 l 1 -4053 l 1 -3997 l 204 -3997 l 406 -3996 l 406 -1971 z "},"&":{"ha":888,"x_min":368,"x_max":885,"o":"m 368 -2026 l 368 56 l 626 56 l 885 56 l 885 0 l 885 -57 l 683 -57 l 481 -57 l 481 -2083 l 481 -4108 l 425 -4108 l 368 -4108 l 368 -2026 z "},"'":{"ha":888,"x_min":1,"x_max":518,"o":"m 1 0 l 1 56 l 260 56 l 518 56 l 518 -2026 l 518 -4108 l 463 -4108 l 406 -4108 l 406 -2083 l 406 -57 l 204 -57 l 1 -57 l 1 0 z "},"(":{"ha":1119,"x_min":196,"x_max":918,"o":"m 833 40 l 864 56 l 886 56 q 914 53 910 56 l 918 49 l 918 26 q 917 0 918 1 q 910 -7 917 -3 l 883 -25 q 668 -308 725 -129 q 653 -372 658 -340 q 644 -518 644 -411 q 643 -976 644 -553 q 640 -1544 643 -1522 q 513 -1844 625 -1706 q 446 -1914 483 -1879 q 300 -2017 382 -1971 l 281 -2026 l 290 -2032 q 422 -2119 360 -2069 q 492 -2186 457 -2149 q 639 -2492 618 -2325 q 642 -3050 642 -2512 q 644 -3611 642 -3581 q 764 -3922 656 -3786 q 835 -3993 800 -3965 q 896 -4037 864 -4018 l 914 -4050 l 918 -4053 l 918 -4076 q 915 -4106 918 -4101 l 911 -4108 l 888 -4110 l 864 -4110 l 838 -4097 q 642 -3958 725 -4042 q 529 -3807 569 -3890 q 483 -3679 496 -3743 q 475 -3493 476 -3642 q 474 -3074 475 -3406 q 471 -2497 472 -2517 q 282 -2114 447 -2264 q 221 -2067 253 -2089 q 203 -2053 203 -2054 q 200 -2010 196 -2046 q 203 -2001 201 -2003 q 221 -1987 203 -2000 q 451 -1661 394 -1869 q 464 -1601 458 -1632 q 472 -1440 472 -1558 q 474 -985 472 -1408 q 476 -412 475 -426 q 506 -297 488 -343 q 551 -206 521 -257 q 758 -3 631 -82 q 833 40 789 18 z "},")":{"ha":1119,"x_min":200,"x_max":921,"o":"m 207 54 q 232 56 210 56 l 254 56 l 276 44 q 429 -53 361 3 q 518 -140 469 -83 q 633 -375 608 -250 q 642 -508 642 -412 q 643 -978 642 -547 q 646 -1546 643 -1524 q 804 -1908 663 -1761 q 894 -1985 847 -1953 q 915 -2000 915 -1997 q 917 -2051 921 -2010 q 906 -2061 915 -2054 q 858 -2094 881 -2078 q 774 -2181 813 -2133 q 653 -2453 678 -2300 q 644 -2669 646 -2493 q 643 -3062 644 -2756 q 640 -3629 643 -3610 q 569 -3842 629 -3743 q 374 -4043 499 -3960 q 285 -4094 328 -4072 l 257 -4108 l 235 -4110 q 203 -4104 207 -4110 l 201 -4058 q 201 -4054 201 -4056 q 210 -4046 203 -4050 q 267 -4007 229 -4033 q 464 -3682 426 -3882 q 472 -3486 471 -3644 q 474 -3076 472 -3399 q 476 -2507 474 -2537 q 546 -2294 486 -2403 q 596 -2221 572 -2249 q 818 -2037 688 -2108 l 838 -2026 l 826 -2022 q 596 -1833 690 -1950 q 546 -1758 568 -1801 q 478 -1560 492 -1667 l 475 -1539 l 474 -983 q 471 -410 472 -425 q 333 -110 446 -235 q 217 -12 283 -53 q 201 -1 204 -6 q 200 24 200 1 q 207 54 200 49 z "},"*":{"ha":1119,"x_min":194,"x_max":988,"o":"m 911 53 q 935 54 922 56 q 972 31 960 50 q 981 0 981 17 l 982 -11 l 644 -1019 l 308 -2026 l 644 -3031 q 981 -4044 981 -4039 q 951 -4103 988 -4083 q 935 -4108 943 -4107 q 881 -4086 901 -4115 q 878 -4081 879 -4083 l 535 -3057 l 194 -2040 l 194 -2028 l 194 -2014 l 533 -997 l 876 25 q 911 53 889 49 z "},"+":{"ha":1119,"x_min":132,"x_max":925,"o":"m 178 53 q 201 54 189 56 q 240 26 228 50 q 585 -997 243 24 l 924 -2014 l 924 -2026 l 925 -2039 l 586 -3053 q 242 -4076 242 -4078 q 201 -4108 231 -4104 q 146 -4085 167 -4115 q 138 -4053 138 -4071 l 138 -4040 l 474 -3035 l 811 -2028 l 474 -1021 l 136 -6 q 165 47 132 29 q 178 53 172 51 z "},",":{"ha":1775,"x_min":79,"x_max":1696,"o":"m 1640 54 q 1683 43 1665 61 q 1694 14 1696 31 q 1607 -228 1694 3 l 842 -2269 q 158 -4085 164 -4074 q 138 -4106 153 -4100 q 103 -4106 121 -4115 q 82 -4085 89 -4100 q 79 -4068 79 -4081 q 106 -3987 79 -4056 q 872 -1944 101 -3999 q 1618 36 1613 25 q 1640 54 1628 50 z "},"-":{"ha":1775,"x_min":78,"x_max":1696,"o":"m 107 54 q 153 39 138 61 q 839 -1781 156 36 l 1608 -3825 l 1696 -4056 l 1696 -4067 q 1692 -4085 1696 -4076 q 1671 -4106 1686 -4100 q 1636 -4106 1654 -4115 q 1615 -4085 1622 -4100 l 79 6 q 79 22 78 14 q 107 54 83 44 z "},".":{"ha":1126,"x_min":78,"x_max":1049,"o":"m 1000 51 q 1017 56 1007 56 q 1043 40 1036 53 q 1049 22 1049 31 l 1049 13 l 594 -1204 q 138 -2426 139 -2422 q 128 -2437 135 -2433 q 110 -2442 121 -2442 q 92 -2437 99 -2442 q 82 -2428 85 -2435 q 78 -2410 78 -2421 l 78 -2399 l 531 -1182 q 989 40 988 39 q 1000 51 993 47 z "},"/":{"ha":1126,"x_min":76,"x_max":1049,"o":"m 94 51 q 136 42 118 64 q 594 -1181 140 35 l 1049 -2397 l 1049 -2410 q 1043 -2428 1049 -2418 q 1033 -2437 1040 -2435 q 993 -2433 1010 -2453 q 989 -2429 990 -2432 q 532 -1206 979 -2410 q 76 26 78 10 l 78 32 q 94 51 83 47 z "},":":{"ha":1235,"x_min":535,"x_max":997,"o":"m 540 13 q 617 14 544 14 q 699 6 694 14 q 700 -332 700 3 q 703 -689 701 -672 q 736 -846 714 -779 q 978 -1175 804 -1054 q 996 -1189 988 -1181 q 997 -1217 997 -1190 l 997 -1240 l 993 -1244 l 989 -1249 l 965 -1249 l 940 -1249 l 925 -1240 q 758 -1121 831 -1189 q 603 -910 660 -1026 q 535 -661 543 -790 l 535 -28 q 535 7 535 6 l 540 13 z "},";":{"ha":1235,"x_min":236,"x_max":700,"o":"m 540 13 l 689 13 l 692 13 q 697 7 696 11 q 700 -319 700 -7 q 699 -661 700 -649 q 653 -860 693 -761 q 604 -960 636 -906 q 308 -1240 496 -1139 l 293 -1249 l 271 -1249 q 238 -1239 240 -1249 q 236 -1214 236 -1235 q 238 -1189 236 -1190 q 256 -1175 246 -1181 q 503 -828 436 -1050 q 525 -729 518 -779 q 533 -524 532 -685 l 533 -332 q 535 6 533 3 q 540 13 536 8 z "},"<":{"ha":1235,"x_min":238,"x_max":700,"o":"m 540 13 l 689 13 l 692 13 q 697 7 696 11 q 700 -314 700 -7 q 699 -650 700 -637 q 550 -1044 683 -868 q 338 -1237 463 -1160 l 318 -1250 l 338 -1262 q 614 -1556 518 -1374 q 699 -1850 689 -1694 q 700 -2186 700 -1862 q 692 -2512 700 -2508 l 542 -2512 q 536 -2507 538 -2511 q 533 -2187 533 -2493 q 532 -1846 533 -1862 q 475 -1583 524 -1703 q 254 -1290 404 -1403 q 238 -1275 238 -1278 l 238 -1225 q 254 -1210 238 -1222 q 519 -761 468 -1050 q 532 -654 529 -708 q 533 -312 533 -637 q 535 7 533 3 l 540 13 z "},"=":{"ha":1235,"x_min":533,"x_max":996,"o":"m 540 13 l 689 13 l 692 13 q 697 7 696 11 q 700 -312 700 -7 q 701 -654 700 -637 q 758 -917 710 -797 q 979 -1210 829 -1097 q 996 -1225 996 -1222 l 996 -1275 q 979 -1290 996 -1278 q 714 -1739 765 -1450 q 701 -1846 704 -1792 q 700 -2187 700 -1862 q 692 -2512 700 -2508 l 542 -2512 q 536 -2507 538 -2511 q 533 -2186 533 -2493 q 535 -1850 533 -1862 q 683 -1456 550 -1632 q 896 -1262 771 -1340 l 915 -1250 l 896 -1237 q 619 -944 715 -1126 q 535 -650 544 -806 l 535 -26 q 535 7 535 6 l 540 13 z "},">":{"ha":1235,"x_min":533,"x_max":700,"o":"m 540 13 l 689 13 l 692 13 q 699 -3 697 11 q 700 -208 700 -24 q 692 -429 700 -425 l 542 -429 q 535 -414 536 -428 q 533 -208 533 -393 q 535 7 533 4 l 540 13 z "},"?":{"ha":926,"x_min":433,"x_max":493,"o":"m 433 -417 l 433 1 l 464 1 l 493 1 l 493 -417 l 493 -835 l 464 -835 l 433 -835 l 433 -417 z "},"@":{"ha":1215,"x_min":404,"x_max":1174,"o":"m 411 68 l 583 68 l 585 68 q 593 42 593 65 q 593 6 593 32 q 613 -578 593 -308 q 975 -2094 672 -1493 q 1144 -2387 1049 -2244 q 1167 -2439 1174 -2431 l 1163 -2443 l 1139 -2443 q 1111 -2442 1113 -2443 q 1090 -2418 1100 -2431 q 454 -804 585 -1804 q 404 -31 410 -464 q 411 68 404 64 z "},"A":{"ha":1215,"x_min":39,"x_max":810,"o":"m 628 68 l 775 69 q 801 68 800 69 q 810 36 808 64 q 810 -31 810 21 q 776 -661 806 -362 q 124 -2418 665 -1761 q 103 -2442 114 -2431 q 50 -2442 94 -2447 q 44 -2426 39 -2436 q 71 -2385 44 -2425 q 307 -1947 208 -2179 q 608 -468 563 -1353 q 613 -367 611 -418 q 621 6 621 -196 q 628 68 621 64 z "},"B":{"ha":1215,"x_min":404,"x_max":593,"o":"m 411 13 l 583 13 l 585 13 q 590 7 590 11 q 593 -417 593 -6 q 585 -846 593 -839 l 413 -846 q 407 -840 407 -844 q 404 -417 404 -826 q 406 7 404 3 l 411 13 z "},"C":{"ha":1215,"x_min":621,"x_max":810,"o":"m 628 13 l 800 13 l 801 13 q 807 7 807 11 q 810 -417 810 -6 q 801 -846 810 -839 l 629 -846 q 624 -840 624 -844 q 621 -417 621 -826 q 622 7 621 3 l 628 13 z "},"D":{"ha":849,"x_min":154,"x_max":733,"o":"m 681 53 q 707 53 694 57 q 731 18 731 42 q 729 11 731 14 q 481 -594 729 7 l 232 -1194 l 463 -1753 l 711 -2354 q 728 -2419 733 -2406 q 682 -2443 717 -2447 q 671 -2435 674 -2440 q 426 -1858 657 -2414 q 154 -1196 156 -1208 q 163 -1167 154 -1190 q 417 -554 167 -1158 q 667 43 660 36 q 681 53 672 51 z "},"E":{"ha":849,"x_min":114,"x_max":693,"o":"m 142 53 q 165 53 153 56 q 181 44 175 50 q 421 -531 188 35 l 674 -1142 l 693 -1190 q 692 -1203 693 -1199 q 439 -1817 692 -1207 q 182 -2431 185 -2428 q 140 -2442 167 -2451 q 118 -2399 114 -2431 q 368 -1793 118 -2394 l 617 -1194 l 371 -603 l 121 0 q 119 31 114 18 q 142 53 125 47 z "},"F":{"ha":1157,"x_min":76,"x_max":1079,"o":"m 125 -3 q 172 -8 150 4 q 199 -35 190 -17 q 206 -99 206 -47 q 207 -658 207 -167 l 207 -1258 l 578 -1258 l 949 -1258 l 949 -658 q 950 -50 949 -57 q 968 -19 956 -32 q 1044 -8 1001 14 q 1071 -35 1063 -17 q 1078 -97 1076 -47 q 1079 -694 1079 -168 q 1074 -1349 1079 -1336 q 1071 -1354 1076 -1344 q 1044 -1381 1063 -1372 q 974 -1387 1031 -1387 q 578 -1389 914 -1389 q 117 -1383 128 -1389 q 111 -1381 119 -1385 q 85 -1354 93 -1372 q 78 -1300 79 -1343 q 76 -694 76 -1235 q 82 -40 76 -53 q 85 -35 79 -44 q 125 -3 96 -10 z "},"G":{"ha":1543,"x_min":76,"x_max":1465,"o":"m 133 -3 q 208 -28 178 10 q 224 -57 219 -40 q 226 -931 226 -65 l 226 -1794 l 771 -1794 l 1315 -1794 l 1315 -931 q 1318 -57 1315 -65 q 1375 -1 1329 -11 q 1443 -22 1414 7 q 1463 -57 1458 -37 q 1465 -972 1465 -65 q 1463 -1887 1465 -1879 q 1408 -1942 1451 -1931 q 772 -1944 1400 -1944 q 126 -1940 142 -1944 l 117 -1935 q 79 -1886 86 -1921 q 76 -972 76 -1879 q 79 -57 76 -65 q 133 -3 90 -14 z "},"H":{"ha":656,"x_min":74,"x_max":850,"o":"m 664 -3 q 726 -4 694 4 q 778 -28 756 -12 q 814 -68 801 -49 q 843 -137 835 -99 q 844 -201 850 -171 q 825 -232 836 -222 q 743 -247 789 -267 q 719 -232 729 -242 q 700 -201 708 -222 q 700 -154 694 -181 q 747 -107 713 -117 l 757 -104 l 754 -100 q 742 -86 753 -97 q 675 -67 714 -58 q 644 -81 663 -69 q 603 -150 618 -103 q 565 -446 582 -211 q 558 -521 560 -514 l 558 -531 l 575 -539 q 657 -601 625 -562 q 717 -726 704 -654 q 717 -817 725 -772 q 657 -942 704 -889 q 518 -1025 603 -1007 l 507 -1026 l 496 -1117 q 471 -1272 479 -1240 q 399 -1450 447 -1383 q 340 -1510 371 -1487 q 290 -1533 315 -1526 q 233 -1542 265 -1542 q 171 -1529 200 -1542 q 126 -1497 146 -1517 q 81 -1406 90 -1460 q 79 -1342 74 -1372 q 99 -1311 88 -1319 q 181 -1296 135 -1276 q 204 -1311 194 -1301 q 224 -1342 215 -1319 q 224 -1389 229 -1362 q 176 -1436 211 -1426 l 167 -1439 l 169 -1443 q 182 -1457 171 -1446 q 250 -1475 210 -1485 q 322 -1392 300 -1465 q 360 -1097 343 -1329 q 367 -1022 365 -1029 l 367 -1012 l 350 -1004 q 268 -942 300 -981 q 208 -817 221 -889 q 208 -726 200 -772 q 268 -601 221 -654 q 407 -518 322 -536 l 418 -517 l 419 -503 l 447 -303 q 483 -172 461 -226 q 664 -3 546 -21 m 410 -578 q 396 -579 410 -575 q 304 -643 343 -599 q 267 -828 239 -725 q 360 -947 289 -906 q 371 -953 369 -953 q 375 -911 371 -944 q 408 -589 394 -686 q 410 -578 410 -583 m 565 -596 q 556 -590 557 -590 q 551 -622 553 -590 q 519 -926 542 -761 q 515 -968 515 -960 q 551 -954 524 -968 q 621 -900 588 -937 q 657 -715 686 -818 q 565 -596 636 -637 z "},"I":{"ha":772,"x_min":76,"x_max":1311,"o":"m 1131 -1 q 1189 -4 1160 4 q 1235 -25 1219 -14 q 1274 -65 1254 -40 q 1311 -190 1311 -121 q 1269 -267 1311 -244 q 1183 -267 1226 -290 q 1142 -190 1140 -244 q 1164 -133 1143 -157 q 1210 -110 1185 -115 q 1221 -107 1219 -107 l 1203 -85 l 1201 -83 q 1149 -67 1175 -60 q 1071 -179 1111 -76 q 974 -544 1025 -296 q 885 -1026 932 -742 l 858 -1172 l 854 -1201 q 869 -1211 854 -1203 q 932 -1251 896 -1225 q 1050 -1425 1015 -1321 q 1068 -1543 1068 -1481 q 1050 -1661 1068 -1606 q 954 -1814 1017 -1757 q 726 -1917 860 -1904 q 710 -1918 711 -1918 l 699 -1969 q 540 -2624 607 -2378 q 363 -3024 457 -2925 q 299 -3071 326 -3058 q 153 -3061 221 -3107 q 114 -3021 133 -3046 q 76 -2896 76 -2965 q 140 -2811 76 -2826 q 204 -2819 172 -2803 q 246 -2896 247 -2842 q 224 -2953 244 -2929 q 179 -2976 204 -2971 q 167 -2979 168 -2979 l 185 -3001 l 186 -3003 q 249 -3015 219 -3031 q 300 -2950 271 -3003 q 415 -2542 354 -2840 q 504 -2058 457 -2343 q 531 -1914 506 -2049 l 535 -1885 q 519 -1875 535 -1883 q 457 -1835 493 -1861 q 339 -1661 374 -1765 q 321 -1543 321 -1606 q 339 -1425 321 -1481 q 435 -1272 372 -1329 q 663 -1169 529 -1182 q 679 -1168 678 -1168 l 690 -1117 q 849 -462 782 -708 q 1019 -69 928 -174 q 1131 -1 1069 -14 m 667 -1228 q 646 -1228 667 -1225 q 433 -1358 514 -1246 q 428 -1367 431 -1362 q 378 -1497 390 -1425 q 378 -1589 372 -1540 q 531 -1818 401 -1739 q 546 -1825 544 -1825 l 556 -1771 q 606 -1518 579 -1644 q 667 -1228 663 -1240 m 868 -1275 l 850 -1264 l 843 -1260 l 835 -1307 q 729 -1829 794 -1531 q 724 -1861 722 -1861 l 740 -1860 q 961 -1719 882 -1837 q 1011 -1589 999 -1661 q 1011 -1497 1017 -1546 q 938 -1335 996 -1404 q 868 -1275 906 -1299 z "},"J":{"ha":1543,"x_min":74,"x_max":1468,"o":"m 733 -1 l 840 -3 q 1074 -69 965 -17 q 1386 -372 1279 -169 q 1396 -392 1392 -382 q 1463 -632 1450 -507 q 1464 -746 1468 -675 q 1463 -757 1463 -753 q 1350 -1078 1443 -936 q 999 -1350 1221 -1272 q 882 -1379 942 -1369 q 771 -1387 831 -1387 q 660 -1379 711 -1387 q 253 -1157 417 -1340 q 126 -953 171 -1065 q 79 -757 89 -862 q 78 -643 74 -714 q 79 -632 79 -636 q 192 -310 99 -453 q 540 -39 319 -117 q 710 -3 624 -10 q 733 -1 719 -1 m 828 -133 l 740 -132 q 717 -133 726 -132 q 511 -194 611 -142 q 246 -490 322 -292 q 210 -635 218 -560 q 210 -754 204 -692 q 394 -1115 235 -971 q 593 -1229 482 -1192 q 771 -1257 675 -1257 q 949 -1229 867 -1257 q 1254 -985 1147 -1164 q 1332 -754 1318 -879 q 1332 -635 1338 -697 q 1139 -268 1306 -411 q 1094 -233 1118 -250 q 828 -133 975 -149 m 747 -583 q 853 -615 808 -571 q 882 -671 876 -640 q 853 -774 894 -729 q 746 -806 808 -819 q 725 -799 735 -803 q 657 -703 663 -769 q 660 -671 657 -687 q 667 -649 663 -657 q 747 -583 692 -594 z "},"K":{"ha":2099,"x_min":35,"x_max":2063,"o":"m 1003 -1 l 1131 -3 q 1506 -115 1335 -24 q 1774 -326 1660 -197 q 1972 -674 1908 -475 q 1985 -1228 2063 -949 q 1972 -1269 1979 -1249 q 1831 -1547 1925 -1419 q 1411 -1875 1669 -1769 q 1129 -1942 1274 -1928 q 976 -1942 1061 -1947 q 968 -1942 972 -1942 q 592 -1829 764 -1921 q 324 -1618 438 -1747 q 125 -1269 189 -1468 q 113 -715 35 -996 q 125 -674 118 -694 q 324 -326 189 -475 q 465 -196 394 -247 q 839 -24 632 -68 q 1003 -1 917 -6 m 1117 -153 q 1000 -151 1044 -149 q 682 -236 828 -164 q 324 -586 446 -354 q 272 -704 293 -643 q 231 -906 240 -803 q 229 -1025 225 -950 q 231 -1037 231 -1033 q 272 -1240 240 -1142 q 575 -1644 358 -1490 q 629 -1679 601 -1662 q 947 -1787 776 -1767 q 1150 -1787 1049 -1801 q 1542 -1631 1368 -1760 q 1839 -1190 1765 -1461 q 1863 -1072 1856 -1132 q 1868 -972 1868 -1036 q 1863 -871 1868 -908 q 1706 -479 1838 -654 q 1240 -174 1526 -242 q 1117 -153 1181 -158 m 1033 -840 q 1081 -843 1057 -837 q 1108 -854 1083 -844 q 1167 -912 1147 -872 q 1181 -972 1181 -940 q 1167 -1031 1181 -1004 q 1108 -1090 1149 -1071 q 1049 -1104 1081 -1104 q 990 -1090 1017 -1104 q 931 -1031 949 -1072 q 917 -972 917 -1004 q 931 -912 917 -940 q 964 -869 943 -889 q 1033 -840 996 -844 z "},"L":{"ha":1543,"x_min":74,"x_max":1468,"o":"m 733 -1 l 840 -3 q 1074 -69 965 -17 q 1386 -372 1279 -169 q 1396 -392 1392 -382 q 1463 -632 1450 -507 q 1464 -746 1468 -675 q 1463 -757 1463 -753 q 1350 -1078 1443 -936 q 999 -1350 1221 -1272 q 882 -1379 942 -1369 q 771 -1387 831 -1387 q 660 -1379 711 -1387 q 253 -1157 417 -1340 q 126 -953 171 -1065 q 79 -757 89 -862 q 78 -643 74 -714 q 79 -632 79 -636 q 192 -310 99 -453 q 540 -39 319 -117 q 710 -3 624 -10 q 733 -1 719 -1 m 706 -382 l 706 -135 l 701 -135 q 675 -139 694 -135 q 333 -339 467 -174 q 238 -514 271 -418 q 211 -621 218 -568 l 211 -629 l 458 -629 l 706 -629 l 706 -382 m 863 -139 q 839 -135 846 -135 q 836 -382 836 -135 l 836 -629 l 1083 -629 l 1331 -629 l 1331 -621 q 1289 -472 1322 -550 q 1038 -199 1213 -292 q 863 -139 956 -154 m 706 -1007 l 706 -760 l 458 -760 l 211 -760 l 211 -768 l 217 -794 q 418 -1133 253 -1001 q 638 -1242 515 -1212 q 703 -1254 678 -1254 q 706 -1007 706 -1254 m 1331 -768 l 1331 -760 l 1083 -760 l 836 -760 l 836 -1007 q 839 -1254 836 -1254 q 904 -1242 864 -1254 q 1228 -1024 1107 -1192 q 1304 -875 1278 -956 q 1331 -768 1324 -821 z "},"M":{"ha":2099,"x_min":35,"x_max":2063,"o":"m 1003 -1 l 1131 -3 q 1506 -115 1335 -24 q 1774 -326 1660 -197 q 1972 -674 1908 -475 q 1985 -1228 2063 -949 q 1972 -1269 1979 -1249 q 1831 -1547 1925 -1419 q 1411 -1875 1669 -1769 q 1129 -1942 1274 -1928 q 976 -1942 1061 -1947 q 968 -1942 972 -1942 q 592 -1829 764 -1921 q 324 -1618 438 -1747 q 125 -1269 189 -1468 q 113 -715 35 -996 q 125 -674 118 -694 q 324 -326 189 -475 q 465 -196 394 -247 q 839 -24 632 -68 q 1003 -1 917 -6 m 974 -525 l 974 -154 l 967 -154 q 946 -157 963 -154 q 557 -314 729 -186 q 263 -739 340 -478 q 247 -794 254 -767 q 232 -893 232 -861 l 232 -897 l 603 -897 l 974 -897 l 974 -525 m 1169 -158 q 1135 -154 1139 -156 l 1124 -154 l 1124 -525 l 1124 -897 l 1494 -897 l 1865 -897 l 1865 -893 q 1857 -829 1865 -874 q 1783 -606 1838 -717 q 1432 -244 1665 -369 q 1169 -158 1308 -179 m 974 -1419 l 974 -1047 l 603 -1047 l 232 -1047 l 232 -1051 q 240 -1115 232 -1071 q 314 -1337 260 -1229 q 665 -1700 432 -1575 q 928 -1786 789 -1765 q 963 -1790 960 -1789 l 974 -1790 l 974 -1419 m 1865 -1051 l 1865 -1047 l 1494 -1047 l 1124 -1047 l 1124 -1419 l 1124 -1790 l 1135 -1790 q 1332 -1743 1232 -1781 q 1738 -1419 1589 -1649 q 1850 -1150 1818 -1296 q 1865 -1051 1865 -1083 z "},"N":{"ha":1543,"x_min":74,"x_max":1468,"o":"m 733 -1 l 840 -3 q 1074 -69 965 -17 q 1386 -372 1279 -169 q 1396 -392 1392 -382 q 1463 -632 1450 -507 q 1464 -746 1468 -675 q 1463 -757 1463 -753 q 1350 -1078 1443 -936 q 999 -1350 1221 -1272 q 882 -1379 942 -1369 q 771 -1387 831 -1387 q 660 -1379 711 -1387 q 253 -1157 417 -1340 q 126 -953 171 -1065 q 79 -757 89 -862 q 78 -643 74 -714 q 79 -632 79 -636 q 192 -310 99 -453 q 540 -39 319 -117 q 710 -3 624 -10 q 733 -1 719 -1 m 828 -133 l 740 -132 q 717 -133 726 -132 q 494 -203 599 -144 q 429 -246 454 -225 l 421 -253 l 596 -428 l 771 -601 l 946 -428 l 1121 -253 l 1113 -246 q 1049 -203 1092 -229 q 828 -133 943 -146 m 504 -869 l 678 -694 l 503 -519 l 329 -344 l 318 -358 q 281 -417 297 -386 q 210 -635 225 -517 q 210 -754 204 -692 q 322 -1036 229 -915 l 329 -1044 l 504 -869 m 1235 -374 q 1219 -353 1226 -364 l 1213 -344 l 1038 -519 l 864 -694 l 1038 -869 l 1213 -1044 l 1219 -1036 q 1332 -754 1313 -915 q 1332 -635 1338 -697 q 1235 -374 1314 -487 m 946 -962 l 771 -787 l 596 -962 l 421 -1136 l 435 -1147 q 679 -1250 544 -1229 q 771 -1257 721 -1257 q 864 -1250 821 -1257 q 1049 -1186 957 -1236 q 1113 -1143 1092 -1160 l 1121 -1136 l 946 -962 z "},"O":{"ha":2099,"x_min":35,"x_max":2063,"o":"m 1003 -1 l 1131 -3 q 1506 -115 1335 -24 q 1774 -326 1660 -197 q 1972 -674 1908 -475 q 1985 -1228 2063 -949 q 1972 -1269 1979 -1249 q 1831 -1547 1925 -1419 q 1411 -1875 1669 -1769 q 1129 -1942 1274 -1928 q 976 -1942 1061 -1947 q 968 -1942 972 -1942 q 592 -1829 764 -1921 q 324 -1618 438 -1747 q 125 -1269 189 -1468 q 113 -715 35 -996 q 125 -674 118 -694 q 324 -326 189 -475 q 465 -196 394 -247 q 839 -24 632 -68 q 1003 -1 917 -6 m 1117 -153 q 1000 -151 1044 -149 q 613 -276 788 -167 q 525 -340 553 -312 l 786 -604 l 1049 -865 l 1182 -732 l 1444 -469 l 1572 -340 l 1567 -335 q 1504 -287 1565 -333 q 1117 -153 1326 -171 m 681 -710 l 418 -447 q 365 -517 413 -444 q 357 -531 361 -525 q 235 -871 258 -686 q 229 -972 229 -908 q 235 -1072 229 -1036 q 364 -1426 258 -1265 q 413 -1492 392 -1467 l 418 -1497 l 467 -1449 l 728 -1186 l 942 -972 l 681 -710 m 1692 -461 q 1679 -447 1681 -447 l 1417 -710 l 1156 -972 l 1369 -1187 l 1632 -1450 l 1679 -1497 l 1685 -1492 q 1733 -1426 1706 -1467 q 1863 -1072 1839 -1265 q 1868 -972 1868 -1036 q 1857 -833 1868 -896 q 1692 -461 1822 -624 m 1311 -1342 q 1049 -1079 1050 -1081 l 589 -1539 l 525 -1604 l 531 -1610 q 594 -1657 540 -1619 q 947 -1787 754 -1764 q 1468 -1678 1225 -1824 q 1522 -1643 1496 -1662 q 1572 -1604 1567 -1614 l 1311 -1342 z "},"P":{"ha":1467,"x_min":78,"x_max":1389,"o":"m 85 -3 q 679 0 89 0 l 1268 0 l 1325 -153 q 1385 -315 1382 -311 l 1388 -325 l 1353 -325 l 1318 -324 l 1314 -312 q 1114 -111 1256 -176 q 1078 -97 1096 -104 q 903 -62 1004 -71 q 551 -56 843 -57 l 271 -56 l 276 -62 l 732 -690 q 732 -699 733 -694 q 474 -997 732 -701 q 217 -1294 218 -1293 l 528 -1296 q 911 -1289 851 -1294 q 1051 -1265 993 -1282 q 1286 -1094 1210 -1221 q 1313 -1040 1301 -1068 l 1318 -1026 l 1353 -1026 q 1388 -1028 1388 -1026 q 1347 -1149 1389 -1026 l 1288 -1328 l 1268 -1389 l 679 -1389 q 86 -1386 90 -1389 q 78 -1374 78 -1383 q 81 -1365 78 -1371 q 342 -1064 85 -1361 l 601 -765 l 340 -406 l 79 -46 l 78 -31 q 85 -3 78 -8 z "},"Q":{"ha":1311,"x_min":76,"x_max":1233,"o":"m 76 -28 l 76 0 l 656 0 l 1233 0 l 1233 -28 l 1233 -56 l 1214 -56 q 1094 -121 1117 -61 l 1092 -131 l 1092 -694 l 1092 -1257 l 1094 -1268 q 1214 -1333 1117 -1328 l 1233 -1333 l 1233 -1361 l 1233 -1389 l 1006 -1389 l 778 -1389 l 778 -1361 l 778 -1333 l 797 -1333 q 917 -1268 894 -1328 l 921 -1257 l 921 -657 l 921 -56 l 654 -56 l 389 -56 l 389 -657 l 390 -1257 l 393 -1268 q 513 -1333 415 -1328 l 532 -1333 l 532 -1361 l 532 -1389 l 304 -1389 l 76 -1389 l 76 -1361 l 76 -1333 l 96 -1333 q 215 -1268 193 -1328 l 219 -1257 l 219 -694 l 219 -131 l 215 -121 q 96 -56 193 -61 l 76 -56 l 76 -28 z "},"R":{"ha":656,"x_min":74,"x_max":850,"o":"m 664 -3 q 726 -4 694 4 q 778 -28 756 -12 q 814 -68 801 -49 q 843 -137 835 -99 q 844 -201 850 -171 q 825 -232 836 -222 q 743 -247 789 -267 q 719 -232 729 -242 q 700 -201 708 -222 q 700 -154 694 -181 q 747 -107 713 -117 l 757 -104 l 754 -100 q 742 -86 753 -97 q 675 -67 714 -58 q 644 -81 663 -69 q 603 -150 618 -103 q 565 -437 583 -208 q 560 -503 563 -467 q 525 -879 544 -721 q 479 -1228 507 -1047 q 399 -1450 460 -1362 q 340 -1510 371 -1487 q 290 -1533 315 -1526 q 233 -1542 265 -1542 q 171 -1529 200 -1542 q 126 -1497 146 -1517 q 81 -1406 90 -1460 q 79 -1342 74 -1372 q 99 -1311 88 -1319 q 181 -1296 135 -1276 q 204 -1311 194 -1301 q 224 -1342 215 -1319 q 224 -1389 229 -1362 q 176 -1436 211 -1426 l 167 -1439 l 169 -1443 q 182 -1457 171 -1446 q 250 -1475 210 -1485 q 340 -1307 321 -1461 q 361 -1078 351 -1242 q 390 -750 376 -878 q 451 -283 425 -419 q 453 -276 453 -279 q 664 -3 506 -28 z "},"S":{"ha":1157,"x_min":76,"x_max":1079,"o":"m 125 -3 q 172 -8 150 4 q 199 -35 190 -17 q 206 -107 206 -49 q 207 -487 207 -165 q 208 -933 207 -922 q 307 -1146 218 -1056 q 522 -1254 397 -1236 q 633 -1254 578 -1262 q 849 -1146 758 -1236 q 947 -933 938 -1056 q 949 -487 949 -922 q 954 -40 949 -53 q 957 -35 953 -44 q 968 -19 958 -29 q 1044 -8 1001 14 q 1071 -35 1063 -17 q 1078 -108 1078 -49 q 1079 -492 1079 -167 q 1078 -943 1079 -932 l 1072 -981 q 892 -1282 1043 -1164 q 681 -1379 799 -1356 q 578 -1387 632 -1387 q 476 -1379 524 -1387 q 272 -1287 361 -1356 q 81 -965 107 -1165 q 78 -943 79 -954 q 76 -492 76 -932 q 82 -40 76 -53 q 85 -35 81 -43 q 125 -3 96 -10 z "},"T":{"ha":1157,"x_min":76,"x_max":1079,"o":"m 543 -1 q 643 -4 588 3 q 883 -101 781 -24 q 1075 -424 1049 -224 q 1078 -446 1076 -435 q 1079 -897 1079 -457 q 1074 -1349 1079 -1336 q 1071 -1354 1075 -1346 q 1060 -1369 1069 -1361 q 983 -1381 1026 -1403 q 957 -1354 965 -1372 q 950 -1282 950 -1340 q 949 -901 949 -1224 q 947 -456 949 -467 q 849 -243 938 -333 q 633 -135 758 -153 q 522 -135 578 -126 q 307 -243 397 -153 q 208 -456 218 -333 q 207 -901 207 -467 q 201 -1349 207 -1336 q 199 -1354 203 -1344 q 172 -1381 190 -1372 q 111 -1381 142 -1399 q 85 -1354 93 -1372 q 78 -1281 78 -1340 q 76 -897 76 -1222 q 78 -446 76 -457 l 83 -408 q 263 -108 113 -226 q 435 -19 339 -47 q 543 -1 485 -6 z "},"U":{"ha":1157,"x_min":76,"x_max":1079,"o":"m 125 -3 q 172 -8 150 4 q 199 -35 190 -17 q 206 -107 206 -49 q 207 -487 207 -165 q 208 -933 207 -922 q 307 -1146 218 -1056 q 522 -1254 397 -1236 q 633 -1254 578 -1262 q 849 -1146 758 -1236 q 947 -933 938 -1056 q 949 -487 949 -922 q 954 -40 949 -53 q 957 -35 953 -44 q 968 -19 958 -29 q 1044 -8 1001 14 q 1071 -35 1063 -17 q 1078 -108 1078 -49 q 1079 -492 1079 -167 q 1078 -943 1079 -932 l 1072 -981 q 892 -1282 1043 -1164 q 681 -1379 799 -1356 q 578 -1387 632 -1387 q 476 -1379 524 -1387 q 272 -1287 361 -1356 q 81 -965 107 -1165 q 78 -943 79 -954 q 76 -492 76 -932 q 82 -40 76 -53 q 85 -35 81 -43 q 125 -3 96 -10 m 563 -418 l 579 -417 l 581 -417 q 604 -422 597 -418 q 640 -467 635 -437 q 643 -533 643 -472 l 643 -592 l 706 -592 l 769 -592 l 779 -597 q 818 -661 821 -617 q 775 -718 814 -703 l 767 -721 l 704 -722 l 643 -722 l 643 -785 q 639 -854 643 -844 q 578 -896 624 -896 q 517 -854 532 -896 q 513 -785 513 -844 l 513 -722 l 451 -722 l 390 -721 l 381 -718 q 338 -661 342 -703 q 376 -597 335 -617 l 388 -592 l 450 -592 l 513 -592 l 513 -533 q 521 -450 513 -465 q 563 -418 536 -425 z "},"V":{"ha":1157,"x_min":75,"x_max":1081,"o":"m 561 -3 q 608 -8 586 4 q 635 -33 626 -15 q 858 -674 640 -44 q 1079 -1319 1078 -1306 q 1042 -1383 1081 -1364 q 1029 -1387 1036 -1386 q 964 -1365 990 -1397 q 957 -1354 960 -1360 l 765 -807 l 578 -267 l 390 -807 q 199 -1354 199 -1353 q 172 -1381 190 -1372 q 96 -1369 129 -1403 q 76 -1319 75 -1349 q 297 -674 78 -1306 q 522 -31 522 -32 q 561 -3 536 -10 z "},"W":{"ha":1157,"x_min":75,"x_max":1081,"o":"m 125 -3 q 172 -8 150 4 q 199 -33 190 -15 q 390 -582 197 -32 l 578 -1122 l 765 -582 q 957 -33 958 -32 q 968 -19 960 -28 q 1040 -6 1000 14 q 1060 -19 1051 -11 q 1079 -69 1081 -40 q 858 -714 1078 -83 q 635 -1356 642 -1342 q 624 -1369 632 -1361 q 550 -1382 592 -1401 q 522 -1358 532 -1375 q 297 -715 522 -1357 q 76 -69 78 -83 q 113 -7 75 -25 q 125 -3 118 -4 z "},"X":{"ha":2006,"x_min":76,"x_max":1928,"o":"m 83 -3 q 924 0 88 0 l 1760 0 l 1839 -183 q 1922 -379 1925 -386 l 1928 -390 l 1893 -390 l 1858 -390 l 1851 -376 q 1772 -265 1825 -318 q 1628 -161 1710 -203 q 1507 -114 1578 -136 q 1244 -72 1401 -83 q 764 -67 1174 -68 l 367 -67 q 694 -515 367 -69 q 1022 -968 1021 -967 q 1024 -975 1024 -969 q 657 -1387 1021 -982 q 286 -1801 292 -1796 l 281 -1808 l 708 -1808 q 1288 -1800 1206 -1807 q 1300 -1799 1293 -1799 q 1657 -1706 1524 -1781 q 1729 -1657 1707 -1676 q 1853 -1497 1819 -1585 l 1858 -1486 q 1893 -1485 1858 -1485 l 1928 -1485 l 1843 -1714 l 1760 -1943 l 925 -1944 q 86 -1943 89 -1944 q 76 -1929 76 -1939 q 79 -1921 76 -1926 q 454 -1501 92 -1908 q 826 -1082 828 -1085 q 450 -568 819 -1075 l 78 -57 l 76 -36 q 83 -3 76 -7 z "},"Y":{"ha":1775,"x_min":78,"x_max":1696,"o":"m 78 -37 l 78 0 l 888 0 l 1696 0 l 1696 -37 l 1696 -75 l 1682 -75 q 1553 -96 1606 -75 q 1472 -181 1492 -121 l 1469 -192 l 1469 -972 l 1469 -1751 l 1472 -1764 q 1553 -1849 1492 -1824 q 1682 -1869 1606 -1869 l 1696 -1869 l 1696 -1907 l 1696 -1944 l 1344 -1944 l 993 -1944 l 993 -1907 l 993 -1869 l 1007 -1869 q 1136 -1849 1083 -1869 q 1217 -1764 1197 -1824 l 1221 -1751 l 1221 -914 l 1221 -75 l 888 -75 l 553 -75 l 553 -914 l 554 -1751 l 557 -1764 q 638 -1849 576 -1824 q 767 -1869 690 -1869 l 781 -1869 l 781 -1907 l 781 -1944 l 429 -1944 l 78 -1944 l 78 -1907 l 78 -1869 l 92 -1869 q 221 -1849 168 -1869 q 301 -1764 282 -1824 l 306 -1751 l 306 -972 l 306 -192 l 301 -181 q 221 -96 282 -121 q 92 -75 168 -75 l 78 -75 l 78 -37 z "},"Z":{"ha":772,"x_min":76,"x_max":1311,"o":"m 1131 -1 q 1189 -4 1160 4 q 1235 -25 1219 -14 q 1274 -65 1254 -40 q 1311 -190 1311 -121 q 1269 -267 1311 -244 q 1183 -267 1226 -290 q 1142 -190 1140 -244 q 1164 -133 1143 -157 q 1210 -110 1185 -115 q 1221 -107 1219 -107 l 1203 -85 l 1201 -83 q 1149 -67 1175 -60 q 1071 -179 1111 -76 q 974 -544 1025 -296 q 885 -1026 932 -742 q 725 -1850 814 -1440 q 540 -2624 617 -2343 q 363 -3024 457 -2925 q 299 -3071 326 -3058 q 153 -3061 221 -3107 q 114 -3021 133 -3046 q 76 -2896 76 -2965 q 140 -2811 76 -2826 q 204 -2819 172 -2803 q 246 -2896 247 -2842 q 224 -2953 244 -2929 q 179 -2976 204 -2971 q 167 -2979 168 -2979 l 185 -3001 l 186 -3003 q 249 -3015 219 -3031 q 300 -2950 271 -3003 q 415 -2542 354 -2840 q 504 -2058 457 -2343 q 606 -1514 560 -1742 q 796 -669 697 -1074 q 925 -233 874 -351 q 1115 -6 1006 -37 q 1131 -1 1122 -3 z "},"[":{"ha":1543,"x_min":76,"x_max":1465,"o":"m 133 -3 q 208 -28 178 10 q 224 -57 219 -40 q 226 -678 226 -65 q 228 -1308 226 -1296 q 339 -1590 240 -1465 q 418 -1669 368 -1628 q 710 -1792 542 -1771 q 833 -1792 765 -1797 q 1124 -1669 1000 -1771 q 1203 -1590 1164 -1637 q 1314 -1308 1301 -1465 q 1315 -678 1315 -1296 q 1318 -57 1315 -65 q 1375 -1 1329 -11 q 1443 -22 1414 7 q 1463 -57 1458 -37 q 1465 -681 1465 -65 q 1464 -1314 1465 -1303 q 1378 -1599 1454 -1465 q 1069 -1879 1271 -1785 q 999 -1907 1035 -1894 q 543 -1907 772 -1983 q 199 -1654 328 -1835 q 164 -1599 181 -1626 q 78 -1314 88 -1465 q 76 -681 76 -1303 q 79 -57 76 -65 q 133 -3 90 -14 z "},"\\":{"ha":1543,"x_min":76,"x_max":1465,"o":"m 722 -1 l 767 0 l 768 0 q 1215 -156 1019 1 q 1400 -387 1333 -251 q 1464 -629 1456 -501 q 1465 -1264 1465 -642 q 1463 -1887 1465 -1879 q 1406 -1943 1451 -1933 q 1338 -1922 1367 -1951 q 1318 -1887 1322 -1907 q 1315 -1267 1315 -1879 q 1314 -636 1315 -649 q 1203 -354 1301 -479 q 1124 -275 1174 -317 q 833 -153 1000 -174 q 771 -151 817 -151 q 710 -153 725 -151 q 418 -275 542 -174 q 339 -354 378 -307 q 228 -636 240 -479 q 226 -1267 226 -649 q 224 -1887 226 -1879 q 167 -1943 213 -1933 q 99 -1922 128 -1951 q 79 -1887 83 -1907 q 76 -1264 76 -1879 q 78 -629 76 -642 q 186 -310 90 -454 q 551 -35 319 -110 q 722 -1 635 -7 z "},"]":{"ha":1543,"x_min":76,"x_max":1465,"o":"m 133 -3 q 208 -28 178 10 q 224 -57 219 -40 q 226 -678 226 -65 q 228 -1308 226 -1296 q 339 -1590 240 -1465 q 418 -1669 368 -1628 q 710 -1792 542 -1771 q 833 -1792 765 -1797 q 1124 -1669 1000 -1771 q 1203 -1590 1164 -1637 q 1314 -1308 1301 -1465 q 1315 -678 1315 -1296 q 1318 -57 1315 -65 q 1375 -1 1329 -11 q 1443 -22 1414 7 q 1463 -57 1458 -37 q 1465 -681 1465 -65 q 1464 -1314 1465 -1303 q 1378 -1599 1454 -1465 q 1069 -1879 1271 -1785 q 999 -1907 1035 -1894 q 543 -1907 772 -1983 q 199 -1654 328 -1835 q 164 -1599 181 -1626 q 78 -1314 88 -1465 q 76 -681 76 -1303 q 79 -57 76 -65 q 133 -3 90 -14 m 761 -525 q 792 -526 772 -522 q 836 -564 824 -537 q 846 -628 844 -581 q 846 -717 846 -647 l 846 -843 l 975 -843 q 1119 -849 1110 -844 l 1126 -853 q 1165 -918 1161 -872 q 1124 -985 1165 -964 q 1108 -990 1115 -989 q 974 -993 1101 -993 l 846 -993 l 846 -1119 q 844 -1253 846 -1249 q 824 -1290 840 -1274 q 738 -1304 785 -1329 q 718 -1290 726 -1299 q 697 -1253 701 -1274 q 696 -1119 696 -1249 l 696 -993 l 568 -993 q 433 -990 440 -993 q 379 -939 392 -981 q 379 -901 374 -919 q 415 -853 385 -871 q 472 -844 431 -844 q 567 -843 471 -844 l 696 -843 l 696 -717 q 701 -571 696 -583 q 706 -564 703 -569 q 761 -525 722 -532 z "},"^":{"ha":1543,"x_min":69,"x_max":1467,"o":"m 754 -3 q 824 -22 793 8 q 838 -40 833 -32 l 1464 -1854 q 1463 -1887 1467 -1874 q 1404 -1943 1451 -1933 q 1339 -1924 1367 -1951 q 1324 -1901 1329 -1914 q 1044 -1097 1314 -1882 l 771 -307 l 497 -1097 q 218 -1901 228 -1882 q 203 -1924 213 -1914 q 121 -1937 167 -1958 q 99 -1922 108 -1932 q 78 -1854 69 -1893 l 697 -62 q 706 -39 706 -40 q 754 -3 721 -10 z "},"_":{"ha":1543,"x_min":76,"x_max":1472,"o":"m 133 -3 q 203 -21 171 8 q 218 -43 213 -31 q 497 -847 228 -62 l 771 -1637 l 1044 -847 q 1324 -43 1314 -62 q 1339 -21 1329 -31 q 1421 -7 1375 14 q 1443 -22 1433 -12 q 1464 -90 1472 -51 l 838 -1904 q 789 -1942 824 -1935 q 715 -1918 746 -1953 q 706 -1904 710 -1911 l 129 -242 q 78 -90 79 -94 q 76 -75 76 -86 q 118 -8 76 -29 q 133 -3 126 -4 z "},"`":{"ha":1311,"x_min":76,"x_max":1233,"o":"m 76 -28 l 76 0 l 304 0 l 532 0 l 532 -28 l 532 -56 l 513 -56 q 393 -121 415 -61 l 390 -131 l 389 -732 l 389 -1333 l 654 -1333 l 921 -1333 l 921 -732 l 921 -131 l 917 -121 q 797 -56 894 -61 l 778 -56 l 778 -28 l 778 0 l 1006 0 l 1233 0 l 1233 -28 l 1233 -56 l 1214 -56 q 1094 -121 1117 -61 l 1092 -131 l 1092 -694 l 1092 -1257 l 1094 -1268 q 1214 -1333 1117 -1328 l 1233 -1333 l 1233 -1361 l 1233 -1389 l 656 -1389 l 76 -1389 l 76 -1361 l 76 -1333 l 96 -1333 q 215 -1268 193 -1328 l 219 -1257 l 219 -694 l 219 -131 l 215 -121 q 96 -56 193 -61 l 76 -56 l 76 -28 z "},"a":{"ha":1775,"x_min":78,"x_max":1696,"o":"m 78 -37 l 78 0 l 429 0 l 781 0 l 781 -37 l 781 -75 l 774 -75 q 701 -79 743 -75 q 594 -121 632 -90 q 557 -181 569 -142 l 554 -192 l 553 -1031 l 553 -1869 l 886 -1869 l 1221 -1869 l 1221 -1033 q 1218 -186 1221 -206 q 1175 -118 1207 -142 q 1125 -92 1158 -104 q 1021 -75 1088 -79 l 993 -75 l 993 -37 l 993 0 l 1344 0 l 1696 0 l 1696 -37 l 1696 -75 l 1689 -75 q 1617 -79 1658 -75 q 1510 -121 1547 -90 q 1472 -181 1485 -142 l 1469 -192 l 1469 -971 q 1471 -1758 1469 -1749 q 1514 -1826 1482 -1803 q 1564 -1853 1531 -1840 q 1668 -1869 1601 -1865 l 1696 -1869 l 1696 -1907 l 1696 -1944 l 888 -1944 l 78 -1944 l 78 -1907 l 78 -1869 l 92 -1869 q 221 -1849 168 -1869 q 301 -1764 282 -1824 l 306 -1751 l 306 -972 l 306 -192 l 301 -181 q 221 -96 282 -121 q 92 -75 168 -75 l 78 -75 l 78 -37 z "},"b":{"ha":772,"x_min":-14,"x_max":786,"o":"m 186 926 l 385 1033 l 389 1031 l 779 822 l 786 818 l 771 788 q 754 757 756 757 l 572 836 q 389 915 390 915 q 201 838 385 918 l 17 757 q -11 813 13 754 q -14 819 -14 818 q 186 926 -12 819 z "},"c":{"ha":1389,"x_min":-10,"x_max":1397,"o":"m 342 956 l 693 1072 l 1397 840 l 1378 774 q 1036 864 1375 774 l 694 956 l 351 864 q 10 774 13 774 l -10 840 l 342 956 z "},"d":{"ha":2006,"x_min":-7,"x_max":2011,"o":"m 497 957 q 1001 1072 1007 1072 l 2011 840 l 1997 772 l 1506 864 q 1007 956 1006 956 q 504 864 997 956 l 7 772 l -7 840 l 497 957 z "},"e":{"ha":772,"x_min":0,"x_max":771,"o":"m 217 1000 q 299 997 253 1006 q 399 965 335 989 q 546 928 500 928 q 558 928 551 928 q 626 940 594 929 q 717 993 675 958 q 731 1001 729 1003 q 749 979 731 1000 q 768 956 767 958 q 746 931 771 953 q 733 921 742 928 q 660 863 679 875 q 499 819 582 811 q 374 856 456 825 q 224 893 271 893 q 213 893 219 893 q 146 881 176 892 q 54 828 96 863 q 40 819 42 818 q 22 842 40 821 q 3 865 4 863 q 25 890 0 868 q 38 900 29 893 q 111 958 92 946 q 217 1000 163 993 z "},"f":{"ha":1389,"x_min":0,"x_max":1388,"o":"m 417 1040 q 522 1039 458 1043 q 715 990 594 1031 q 919 939 846 947 q 982 938 929 938 q 1054 940 1033 938 q 1336 1031 1182 957 l 1358 1042 l 1374 1013 l 1388 983 l 1331 954 l 1247 914 q 913 836 1063 832 q 672 888 819 840 q 468 939 542 931 q 406 940 458 940 q 335 938 354 940 q 51 847 206 921 l 29 836 l 14 865 l 0 894 l 57 924 l 140 964 q 417 1040 289 1029 z "},"g":{"ha":2006,"x_min":0,"x_max":2011,"o":"m 615 1040 q 817 1032 719 1044 q 1036 982 894 1021 q 1349 925 1226 931 q 1378 924 1363 924 q 1549 933 1474 924 q 1958 1033 1736 958 q 1983 1042 1982 1042 l 2004 979 q 1840 925 2011 979 q 1208 839 1464 808 q 1189 842 1199 840 q 968 892 1110 853 q 656 949 778 943 q 626 950 642 950 q 457 940 531 950 q 46 840 268 915 q 21 832 22 832 l 0 894 l 165 949 q 615 1040 419 1029 z "},"h":{"ha":656,"x_min":308,"x_max":633,"o":"m 308 -1193 l 308 56 l 471 56 l 633 56 l 633 18 l 633 -19 l 508 -19 l 383 -19 l 383 -1193 l 383 -2368 l 508 -2368 l 633 -2368 l 633 -2406 l 633 -2443 l 471 -2443 l 308 -2443 l 308 -1193 z "},"i":{"ha":656,"x_min":21,"x_max":346,"o":"m 21 18 l 21 56 l 183 56 l 346 56 l 346 -1193 l 346 -2443 l 183 -2443 l 21 -2443 l 21 -2406 l 21 -2368 l 146 -2368 l 271 -2368 l 271 -1193 l 271 -19 l 146 -19 l 21 -19 l 21 18 z "},"j":{"ha":733,"x_min":310,"x_max":711,"o":"m 310 -1193 l 310 56 l 347 56 l 385 56 l 385 -1156 l 385 -2368 l 549 -2368 l 711 -2368 l 711 -2406 l 711 -2443 l 511 -2443 l 310 -2443 l 310 -1193 z "},"k":{"ha":733,"x_min":21,"x_max":422,"o":"m 347 -1156 l 347 56 l 385 56 l 422 56 l 422 -1193 l 422 -2443 l 222 -2443 l 21 -2443 l 21 -2406 l 21 -2368 l 185 -2368 l 347 -2368 l 347 -1156 z "},"l":{"ha":733,"x_min":310,"x_max":711,"o":"m 310 -1193 l 310 56 l 511 56 l 711 56 l 711 18 l 711 -19 l 549 -19 l 385 -19 l 385 -1231 l 385 -2443 l 347 -2443 l 310 -2443 l 310 -1193 z "},"m":{"ha":733,"x_min":21,"x_max":422,"o":"m 21 18 l 21 56 l 222 56 l 422 56 l 422 -1193 l 422 -2443 l 385 -2443 l 347 -2443 l 347 -1231 l 347 -19 l 185 -19 l 21 -19 l 21 18 z "},"n":{"ha":926,"x_min":161,"x_max":760,"o":"m 690 47 l 714 56 l 732 56 l 751 56 l 756 51 l 760 47 l 760 28 q 751 1 760 6 q 742 -3 749 0 q 643 -61 685 -28 q 539 -208 560 -125 q 532 -400 532 -235 q 532 -569 532 -444 q 529 -906 532 -892 q 269 -1183 508 -1082 l 246 -1194 l 261 -1200 q 343 -1240 300 -1215 q 524 -1450 492 -1324 q 532 -1600 532 -1481 q 532 -1818 532 -1650 q 538 -2172 532 -2150 q 539 -2179 538 -2174 q 594 -2281 551 -2231 q 742 -2385 653 -2349 q 760 -2399 758 -2390 q 760 -2415 760 -2403 l 760 -2435 l 756 -2439 l 751 -2443 l 733 -2443 l 714 -2443 l 692 -2435 q 393 -2156 418 -2337 q 392 -1821 392 -2142 q 390 -1487 392 -1496 q 333 -1346 382 -1411 q 190 -1229 281 -1274 q 168 -1215 169 -1217 q 165 -1179 161 -1208 q 168 -1172 167 -1174 l 190 -1158 q 333 -1042 281 -1114 q 390 -900 382 -976 q 392 -567 392 -892 q 397 -212 392 -235 q 400 -203 397 -211 q 604 10 433 -74 q 690 47 633 25 z "},"o":{"ha":926,"x_min":161,"x_max":758,"o":"m 172 54 q 193 56 175 56 q 228 50 211 56 q 524 -201 482 -40 q 532 -347 532 -231 q 532 -567 532 -397 q 533 -900 532 -892 q 556 -983 538 -943 q 729 -1156 603 -1092 q 736 -1160 732 -1158 q 758 -1172 754 -1168 l 758 -1215 q 736 -1228 754 -1219 q 556 -1404 608 -1290 q 533 -1487 538 -1444 q 532 -1821 532 -1496 q 526 -2175 532 -2153 l 524 -2186 q 400 -2351 499 -2281 q 228 -2437 331 -2400 q 193 -2443 211 -2443 q 167 -2436 169 -2443 q 167 -2394 161 -2426 q 189 -2382 171 -2390 q 374 -2212 326 -2321 q 385 -2179 381 -2196 q 392 -1987 392 -2153 q 392 -1818 392 -1943 q 397 -1461 392 -1485 l 400 -1450 q 514 -1285 422 -1358 q 585 -1239 547 -1258 q 664 -1200 621 -1217 l 679 -1193 l 664 -1187 q 582 -1149 631 -1175 q 514 -1103 549 -1128 q 400 -937 422 -1029 q 392 -787 392 -907 q 392 -569 392 -737 q 386 -215 392 -237 q 385 -208 386 -214 q 228 -25 357 -97 q 189 -6 208 -14 q 167 7 171 3 q 165 28 165 10 q 172 54 165 49 z "},"p":{"ha":1389,"x_min":154,"x_max":1417,"o":"m 1376 51 q 1401 53 1389 58 q 1417 31 1414 44 l 1417 22 l 1029 -787 q 638 -1601 638 -1600 q 629 -1608 632 -1607 q 606 -1611 624 -1611 l 589 -1610 l 443 -1271 l 296 -931 q 249 -967 296 -928 l 200 -1004 l 176 -982 l 154 -958 l 267 -868 l 381 -778 l 383 -783 l 660 -1426 l 1011 -696 q 1365 43 1365 42 q 1376 51 1371 49 z "},"q":{"ha":1389,"x_min":154,"x_max":1417,"o":"m 1376 51 q 1401 53 1389 58 q 1417 31 1414 46 q 1031 -1199 1417 21 q 640 -2428 643 -2425 q 632 -2439 639 -2435 q 608 -2444 625 -2444 l 589 -2444 l 588 -2440 q 440 -1924 588 -2439 q 292 -1408 290 -1407 q 275 -1425 292 -1406 q 246 -1460 265 -1436 q 200 -1514 201 -1512 l 176 -1492 l 154 -1468 l 267 -1332 q 381 -1197 381 -1196 l 521 -1686 q 663 -2176 663 -2175 l 1013 -1072 l 1365 42 q 1376 51 1368 47 z "},"r":{"ha":1389,"x_min":154,"x_max":1417,"o":"m 1376 51 q 1389 56 1383 56 q 1417 32 1408 56 q 1031 -1614 1417 25 q 640 -3261 643 -3258 q 632 -3272 639 -3268 q 608 -3278 625 -3278 q 590 -3276 590 -3278 l 440 -2585 q 290 -1889 290 -1890 l 289 -1882 l 257 -1935 l 213 -2006 l 200 -2025 l 178 -2001 l 154 -1978 l 267 -1796 l 379 -1614 l 522 -2269 l 664 -2925 l 1365 40 q 1376 51 1368 49 z "},"s":{"ha":1389,"x_min":154,"x_max":1417,"o":"m 1376 51 q 1389 56 1383 56 q 1417 32 1408 56 q 1031 -2031 1417 28 q 640 -4094 643 -4090 q 632 -4106 639 -4101 q 608 -4111 625 -4111 q 590 -4110 590 -4111 l 439 -3237 q 288 -2362 288 -2367 q 261 -2412 288 -2358 q 244 -2446 254 -2426 l 201 -2533 q 176 -2512 200 -2536 l 154 -2489 l 267 -2260 l 379 -2031 l 521 -2840 q 663 -3662 660 -3650 l 665 -3676 l 1014 -1822 q 1365 40 1360 26 q 1376 51 1368 49 z "},"t":{"ha":1467,"x_min":154,"x_max":1031,"o":"m 990 25 q 1025 15 1014 36 l 1031 10 l 1031 -1235 l 1031 -2481 l 1025 -2486 q 992 -2500 1018 -2499 q 976 -2499 976 -2500 q 321 -518 321 -519 l 261 -642 q 200 -765 200 -764 l 176 -743 l 154 -719 l 268 -485 l 382 -249 l 679 -1146 l 975 -2043 l 975 -1017 l 976 10 l 981 15 q 990 25 983 19 z "},"u":{"ha":1467,"x_min":975,"x_max":1031,"o":"m 990 25 q 1028 13 1010 36 l 1031 7 l 1031 -417 l 1031 -840 l 1028 -846 q 1018 -856 1022 -853 q 1003 -860 1013 -860 q 988 -856 993 -860 q 978 -846 983 -853 l 975 -840 l 975 -415 l 976 10 l 981 15 l 990 25 z "},"v":{"ha":1467,"x_min":975,"x_max":1494,"o":"m 990 51 l 997 56 l 1236 56 l 1474 56 l 1479 53 q 1490 43 1483 50 q 1494 28 1494 35 q 1490 13 1494 21 q 1479 3 1483 6 l 1474 0 l 1251 0 l 1031 0 l 1031 -392 l 1031 -785 l 1028 -790 q 1018 -800 1022 -797 q 1003 -804 1013 -804 q 988 -800 993 -804 q 978 -790 983 -797 l 975 -785 l 975 -376 l 975 33 l 979 40 q 990 51 982 49 z "},"w":{"ha":1081,"x_min":357,"x_max":724,"o":"m 357 -417 l 357 1 l 388 1 l 417 1 l 417 -417 l 417 -835 l 388 -835 l 357 -835 l 357 -417 m 664 -417 l 664 1 l 694 1 l 724 1 l 724 -417 l 724 -835 l 694 -835 l 664 -835 l 664 -417 z "},"x":{"ha":926,"x_min":156,"x_max":771,"o":"m 450 -19 l 463 0 l 476 -19 q 764 -243 583 -176 l 771 -246 l 771 -279 q 768 -312 771 -312 l 760 -308 q 508 -153 619 -260 l 493 -139 l 493 -486 l 493 -833 l 464 -833 l 433 -833 l 433 -486 l 433 -139 l 418 -153 q 168 -308 308 -258 q 158 -312 160 -311 q 156 -279 156 -312 l 156 -246 l 163 -243 q 218 -221 179 -237 q 450 -19 361 -150 z "},"y":{"ha":926,"x_min":156,"x_max":771,"o":"m 433 -347 l 433 0 l 464 0 l 493 0 l 493 -347 l 493 -694 l 508 -681 q 760 -525 619 -574 q 768 -521 767 -521 q 771 -554 771 -521 l 771 -587 l 764 -590 q 710 -612 742 -597 q 476 -814 565 -682 l 464 -833 l 450 -814 q 163 -590 343 -657 l 156 -587 l 156 -554 q 158 -521 156 -521 q 168 -525 160 -522 q 418 -681 307 -574 l 433 -694 l 433 -347 z "},"z":{"ha":625,"x_min":-33,"x_max":638,"o":"m 576 165 l 610 167 l 611 167 q 638 158 635 167 l 638 8 q 613 0 635 0 q 575 -1 588 0 q 156 -147 318 -17 q 75 -226 114 -178 q 35 -285 50 -257 q -1 -296 15 -296 l -25 -296 l -29 -292 l -33 -287 l -33 -262 l -33 -239 l -22 -219 q 261 67 83 -35 q 361 117 294 88 q 576 165 464 157 z "},"{":{"ha":625,"x_min":-12,"x_max":658,"o":"m -7 164 q 46 165 -1 168 q 264 117 158 157 q 364 67 331 88 q 647 -219 542 -35 l 658 -239 l 658 -262 l 658 -287 l 654 -292 l 650 -296 l 626 -296 q 590 -285 597 -296 q 550 -226 575 -257 q 469 -147 514 -181 q 179 -18 351 -51 q 13 0 93 0 q -12 8 -10 0 l -12 158 q -7 164 -10 164 z "},"|":{"ha":625,"x_min":-33,"x_max":638,"o":"m -29 458 l -25 463 l -1 463 q 35 451 28 463 q 75 394 53 419 q 156 314 107 351 q 446 185 274 218 q 613 167 532 167 q 638 158 635 167 l 638 8 q 614 0 635 0 q 361 50 493 0 q 261 100 294 79 q -22 386 83 201 l -33 406 l -33 429 l -33 454 l -29 458 z "},"}":{"ha":625,"x_min":-12,"x_max":658,"o":"m 599 460 q 626 463 601 463 l 650 463 l 654 458 l 658 454 l 658 429 l 658 406 l 647 386 q 364 100 542 201 q 264 50 331 79 q 11 0 132 0 q -12 8 -10 0 l -12 158 q 13 167 -10 167 q 51 168 38 167 q 469 314 307 183 q 550 394 513 346 q 590 451 572 419 q 599 460 596 460 z "},"~":{"ha":1081,"x_min":79,"x_max":1001,"o":"m 529 -24 q 540 -1 540 -3 l 551 -24 q 857 -360 654 -235 q 883 -376 869 -368 q 983 -425 940 -410 l 1001 -432 l 1001 -462 l 1001 -492 l 999 -490 q 926 -460 972 -483 q 739 -339 829 -412 l 725 -328 l 724 -581 l 724 -833 l 693 -833 l 664 -833 l 664 -553 l 664 -271 l 647 -254 q 554 -136 593 -194 q 540 -117 542 -118 l 526 -136 q 433 -254 488 -194 l 417 -271 l 417 -553 l 417 -833 l 388 -833 l 357 -833 l 357 -581 l 357 -328 l 343 -339 q 154 -460 250 -414 q 82 -490 108 -483 l 79 -492 l 79 -462 l 79 -432 l 97 -425 q 197 -376 140 -410 q 514 -54 401 -260 q 529 -24 522 -39 z "},"°":{"ha":829,"x_min":247,"x_max":779,"o":"m 722 47 l 732 56 l 751 56 l 771 56 l 775 51 q 779 43 779 47 q 761 18 779 36 q 425 -733 501 -271 q 401 -1467 368 -1079 q 410 -1540 406 -1504 q 761 -2406 474 -2085 q 779 -2431 779 -2424 q 775 -2439 779 -2435 l 771 -2443 l 751 -2443 l 732 -2443 l 722 -2435 q 519 -2203 611 -2339 q 322 -1765 390 -2014 q 253 -1311 265 -1556 q 251 -1099 247 -1232 q 253 -1076 253 -1085 q 322 -622 265 -832 q 594 -85 410 -306 q 722 47 657 -8 z "},"µ":{"ha":1042,"x_min":124,"x_max":867,"o":"m 158 53 q 207 40 188 64 q 211 35 210 38 q 540 -785 214 32 l 865 -1597 l 865 -1610 l 867 -1622 l 543 -2429 q 217 -3246 219 -3237 q 193 -3272 208 -3262 q 174 -3275 186 -3275 q 140 -3262 153 -3275 q 128 -3229 128 -3250 l 128 -3217 l 447 -2419 q 768 -1617 769 -1614 l 769 -1610 l 449 -806 q 126 7 128 -6 q 158 53 124 39 z "},"¶":{"ha":1450,"x_min":78,"x_max":1372,"o":"m 1324 54 q 1338 56 1326 56 q 1371 28 1364 54 q 1372 15 1372 21 q 1275 -244 1372 10 l 665 -1876 q 144 -3260 149 -3256 q 104 -3275 131 -3282 q 82 -3257 89 -3269 q 78 -3239 78 -3250 q 94 -3186 78 -3226 q 704 -1558 100 -3169 q 1301 35 1290 14 q 1313 49 1306 42 l 1324 54 z "},"·":{"ha":810,"x_min":11,"x_max":469,"o":"m 376 -1564 l 376 56 l 424 56 l 469 56 l 469 -1610 l 469 -3275 l 240 -3276 l 11 -3276 l 11 -3229 l 11 -3183 l 194 -3183 l 376 -3182 l 376 -1564 z "},"À":{"ha":636,"x_min":213,"x_max":593,"o":"m 522 47 l 532 56 l 558 56 l 585 56 l 589 51 q 593 43 593 47 q 579 22 593 36 q 354 -550 393 -193 q 343 -776 343 -639 q 354 -1004 343 -915 q 579 -1576 393 -1361 q 593 -1597 593 -1590 q 589 -1606 593 -1601 l 585 -1610 l 558 -1610 l 532 -1610 l 522 -1601 q 417 -1487 469 -1556 q 224 -974 261 -1279 q 213 -776 213 -893 q 224 -581 213 -661 q 449 -28 265 -242 q 522 47 483 14 z "},"Á":{"ha":636,"x_min":42,"x_max":422,"o":"m 49 54 q 78 56 51 56 l 103 56 l 113 47 q 218 -67 165 1 q 411 -581 374 -275 q 422 -776 422 -661 q 411 -974 422 -893 q 186 -1526 369 -1312 q 113 -1601 151 -1568 l 103 -1610 l 78 -1610 q 43 -1601 46 -1610 q 42 -1593 42 -1599 l 56 -1575 q 238 -1229 182 -1431 q 290 -889 278 -1094 q 292 -687 296 -822 q 290 -664 290 -672 q 238 -324 278 -460 q 56 21 182 -124 l 42 39 q 49 54 42 50 z "},"Â":{"ha":579,"x_min":281,"x_max":547,"o":"m 281 -776 l 281 56 l 414 56 l 547 56 l 547 28 l 547 0 l 442 0 l 336 0 l 336 -776 l 336 -1554 l 442 -1554 l 547 -1554 l 547 -1582 l 547 -1610 l 414 -1610 l 281 -1610 l 281 -776 z "},"Ã":{"ha":579,"x_min":31,"x_max":297,"o":"m 31 28 l 31 56 l 164 56 l 297 56 l 297 -776 l 297 -1610 l 164 -1610 l 31 -1610 l 31 -1582 l 31 -1554 l 136 -1554 l 242 -1554 l 242 -776 l 242 0 l 136 0 l 31 0 l 31 28 z "},"Ä":{"ha":656,"x_min":281,"x_max":624,"o":"m 281 -776 l 281 56 l 308 56 l 336 56 l 336 -749 l 336 -1554 l 481 -1554 l 624 -1554 l 624 -1582 l 624 -1610 l 453 -1610 l 281 -1610 l 281 -776 z "},"Å":{"ha":656,"x_min":31,"x_max":374,"o":"m 318 -749 l 318 56 l 346 56 l 374 56 l 374 -776 l 374 -1610 l 203 -1610 l 31 -1610 l 31 -1582 l 31 -1554 l 175 -1554 l 318 -1554 l 318 -749 z "},"Æ":{"ha":656,"x_min":281,"x_max":624,"o":"m 281 -776 l 281 56 l 453 56 l 624 56 l 624 28 l 624 0 l 481 0 l 336 0 l 336 -804 l 336 -1610 l 308 -1610 l 281 -1610 l 281 -776 z "},"Ç":{"ha":656,"x_min":31,"x_max":374,"o":"m 31 28 l 31 56 l 203 56 l 374 56 l 374 -776 l 374 -1610 l 346 -1610 l 318 -1610 l 318 -804 l 318 0 l 175 0 l 31 0 l 31 28 z "},"È":{"ha":810,"x_min":139,"x_max":669,"o":"m 582 47 l 610 56 l 635 56 l 661 56 l 665 51 l 669 47 l 669 21 q 663 -12 669 -8 q 646 -18 660 -14 q 500 -86 542 -44 q 475 -126 481 -106 l 471 -137 l 469 -360 q 467 -592 468 -583 q 439 -654 458 -625 q 396 -699 421 -679 q 257 -771 349 -740 l 240 -778 l 254 -782 q 396 -856 340 -810 q 439 -900 419 -875 q 467 -962 458 -929 q 469 -1194 468 -971 l 471 -1415 l 475 -1428 q 500 -1468 481 -1449 q 646 -1536 542 -1510 q 668 -1549 667 -1542 q 669 -1575 669 -1553 l 669 -1601 l 665 -1606 l 661 -1610 l 636 -1610 l 611 -1610 l 585 -1603 q 353 -1461 394 -1550 q 343 -1435 347 -1449 l 340 -1421 l 339 -1199 q 333 -957 338 -969 q 331 -949 333 -958 q 167 -818 297 -867 q 142 -806 147 -811 q 139 -776 139 -803 q 142 -749 139 -751 q 167 -736 147 -743 q 331 -606 297 -687 q 338 -515 338 -586 q 339 -356 338 -542 l 340 -132 l 343 -119 q 511 25 368 -26 q 582 47 543 36 z "},"É":{"ha":810,"x_min":136,"x_max":669,"o":"m 146 54 q 174 56 149 56 l 197 56 l 224 49 q 456 -93 414 -4 q 465 -119 461 -106 l 468 -132 l 469 -356 q 475 -597 471 -585 q 478 -606 475 -596 q 650 -740 510 -690 q 668 -754 667 -746 q 669 -776 669 -758 q 661 -810 669 -806 q 650 -814 658 -811 q 478 -949 510 -864 q 471 -1039 471 -968 q 469 -1199 471 -1012 l 468 -1421 l 465 -1435 q 292 -1582 440 -1529 q 224 -1603 261 -1593 l 197 -1610 l 174 -1610 q 140 -1603 146 -1610 q 139 -1556 136 -1594 q 140 -1547 139 -1549 q 167 -1536 144 -1540 q 308 -1468 267 -1508 q 333 -1428 328 -1449 l 339 -1415 l 339 -1194 q 342 -962 340 -971 q 369 -900 350 -929 q 413 -856 389 -875 q 551 -783 460 -814 l 568 -776 l 554 -772 q 413 -699 468 -744 q 369 -654 388 -679 q 342 -592 350 -625 q 339 -360 340 -583 l 339 -137 l 333 -126 q 308 -86 328 -106 q 167 -18 267 -46 q 140 -7 144 -14 q 139 21 139 -4 q 146 54 139 49 z "},"Ê":{"ha":656,"x_min":135,"x_max":547,"o":"m 510 54 q 532 53 519 58 q 547 31 544 44 q 371 -378 547 21 l 193 -778 l 371 -1178 q 547 -1586 547 -1576 q 525 -1611 546 -1608 q 518 -1611 521 -1611 q 494 -1594 501 -1610 q 313 -1185 492 -1586 q 135 -778 135 -785 q 313 -371 135 -771 q 494 39 492 31 q 510 54 500 50 z "},"Ë":{"ha":656,"x_min":107,"x_max":519,"o":"m 122 53 q 136 56 128 56 q 160 39 153 54 q 342 -371 163 31 q 519 -778 519 -771 q 342 -1185 519 -785 q 160 -1594 163 -1586 q 136 -1611 153 -1610 q 107 -1586 113 -1614 q 283 -1178 107 -1576 l 461 -778 l 283 -378 q 107 31 107 21 q 122 53 110 44 z "},"Ì":{"ha":463,"x_min":203,"x_max":260,"o":"m 226 29 q 260 8 249 33 l 260 -842 q 231 -862 256 -862 q 203 -842 207 -862 l 203 8 q 226 29 208 26 z "},"Í":{"ha":772,"x_min":203,"x_max":568,"o":"m 226 29 q 260 8 249 33 l 260 -842 q 231 -862 256 -862 q 203 -842 207 -862 l 203 8 q 226 29 208 26 m 535 29 q 568 8 557 33 l 568 -842 q 540 -862 564 -862 q 511 -842 515 -862 l 511 8 q 535 29 517 26 z "},"Î":{"ha":803,"x_min":76,"x_max":725,"o":"m 686 54 q 722 38 710 61 q 725 24 725 32 l 133 -1593 q 97 -1608 122 -1617 q 79 -1592 85 -1604 q 76 -1578 76 -1586 l 668 39 q 686 54 675 50 z "},"Ï":{"ha":803,"x_min":74,"x_max":725,"o":"m 97 54 q 133 39 121 61 l 725 -1578 q 722 -1592 725 -1586 q 685 -1608 710 -1617 q 668 -1593 674 -1604 l 76 24 q 97 54 74 44 z "},"Ñ":{"ha":829,"x_min":47,"x_max":581,"o":"m 56 54 q 78 56 58 56 l 96 56 l 106 47 q 308 -185 217 -49 q 506 -622 438 -374 q 575 -1076 563 -832 q 576 -1289 581 -1156 q 575 -1311 575 -1303 q 506 -1765 563 -1556 q 233 -2303 418 -2082 q 106 -2435 171 -2379 l 96 -2443 l 78 -2443 q 50 -2435 53 -2443 q 61 -2411 47 -2426 q 138 -2318 111 -2354 q 418 -1540 363 -2019 q 419 -860 457 -1203 q 418 -847 419 -854 q 68 17 354 -300 q 49 43 49 38 q 56 54 49 50 z "},"Ò":{"ha":1022,"x_min":290,"x_max":974,"o":"m 917 50 l 922 56 l 944 56 l 965 56 l 969 51 q 974 43 974 47 q 954 17 974 36 q 681 -379 789 -161 q 444 -1389 475 -794 q 440 -1610 440 -1464 q 444 -1831 440 -1757 q 681 -2840 475 -2428 q 954 -3237 788 -3058 q 974 -3264 974 -3257 q 969 -3272 974 -3268 l 965 -3276 l 944 -3276 l 922 -3276 l 917 -3271 q 796 -3153 875 -3237 q 308 -1965 389 -2706 q 300 -1885 303 -1925 q 290 -1610 290 -1772 q 300 -1335 290 -1449 q 753 -117 361 -583 q 796 -68 774 -92 q 917 50 875 17 z "},"Ó":{"ha":1022,"x_min":47,"x_max":731,"o":"m 54 54 q 78 56 57 56 l 99 56 l 104 50 q 225 -68 146 17 q 713 -1243 629 -512 q 721 -1335 717 -1289 q 731 -1610 731 -1449 q 721 -1885 731 -1772 q 263 -3110 658 -2643 q 225 -3153 244 -3132 q 104 -3271 146 -3237 l 99 -3276 l 78 -3276 q 49 -3268 51 -3276 q 47 -3260 47 -3265 l 67 -3237 l 68 -3236 q 340 -2840 235 -3054 q 576 -1831 546 -2428 q 581 -1610 581 -1757 q 576 -1389 581 -1464 q 340 -379 546 -794 q 68 15 235 -165 q 47 39 67 17 q 54 54 47 50 z "},"Ô":{"ha":733,"x_min":339,"x_max":721,"o":"m 339 -1610 l 339 56 l 531 56 l 721 56 l 721 10 l 721 -37 l 576 -37 l 432 -37 l 432 -1610 l 432 -3182 l 576 -3183 l 721 -3183 l 721 -3229 l 721 -3276 l 531 -3276 l 339 -3275 l 339 -1610 z "},"Õ":{"ha":733,"x_min":11,"x_max":393,"o":"m 11 10 l 11 56 l 203 56 l 393 56 l 393 -1610 l 393 -3275 l 203 -3276 l 11 -3276 l 11 -3229 l 11 -3183 l 156 -3183 l 300 -3182 l 300 -1610 l 300 -37 l 156 -37 l 11 -37 l 11 10 z "},"Ö":{"ha":810,"x_min":339,"x_max":797,"o":"m 339 -1610 l 339 56 l 386 56 l 432 56 l 432 -1564 l 432 -3182 l 615 -3183 l 797 -3183 l 797 -3229 l 797 -3276 l 568 -3276 l 339 -3275 l 339 -1610 z "},"Ø":{"ha":810,"x_min":339,"x_max":797,"o":"m 339 -1610 l 339 56 l 568 56 l 797 56 l 797 10 l 797 -37 l 615 -37 l 432 -37 l 432 -1657 l 432 -3275 l 386 -3275 l 339 -3275 l 339 -1610 z "},"Ù":{"ha":810,"x_min":11,"x_max":469,"o":"m 11 10 l 11 56 l 240 56 l 469 56 l 469 -1610 l 469 -3275 l 424 -3275 l 376 -3275 l 376 -1657 l 376 -37 l 194 -37 l 11 -37 l 11 10 z "},"Ú":{"ha":1042,"x_min":179,"x_max":858,"o":"m 790 49 l 808 56 l 829 56 l 850 56 l 854 51 l 858 47 l 858 26 q 847 -4 858 1 l 822 -18 q 617 -244 668 -104 q 601 -301 607 -272 l 596 -336 q 594 -776 594 -347 q 593 -1218 594 -1207 q 496 -1440 582 -1339 q 371 -1550 446 -1501 q 290 -1597 342 -1571 l 263 -1611 l 288 -1622 q 568 -1900 500 -1726 q 593 -2003 589 -1950 q 594 -2443 594 -2014 q 596 -2885 594 -2874 l 601 -2919 q 771 -3169 626 -3067 q 822 -3203 794 -3187 l 847 -3217 q 858 -3247 858 -3235 l 858 -3268 l 854 -3272 l 850 -3276 l 829 -3276 l 808 -3276 l 792 -3269 q 608 -3164 688 -3226 q 529 -3085 556 -3118 q 471 -2985 489 -3032 q 447 -2900 457 -2954 q 444 -2444 446 -2896 q 439 -1968 443 -1989 q 436 -1953 440 -1971 q 276 -1696 407 -1804 q 267 -1689 271 -1693 q 201 -1646 242 -1667 q 183 -1633 186 -1637 q 182 -1594 179 -1624 q 183 -1587 182 -1589 q 201 -1575 186 -1583 q 267 -1532 242 -1554 q 435 -1276 401 -1428 q 436 -1267 435 -1271 q 443 -1107 443 -1233 q 444 -775 443 -1129 q 447 -321 446 -325 q 471 -235 457 -267 q 529 -136 489 -187 q 608 -57 556 -103 q 790 49 686 4 z "},"Û":{"ha":1042,"x_min":182,"x_max":858,"o":"m 189 54 q 213 56 192 56 l 232 56 l 257 44 q 569 -235 496 -57 q 586 -287 579 -261 q 593 -432 593 -319 q 594 -776 593 -428 l 596 -1228 q 600 -1247 597 -1231 q 747 -1511 622 -1400 q 765 -1526 756 -1519 q 846 -1579 810 -1561 q 858 -1610 858 -1597 q 851 -1639 858 -1635 q 846 -1642 850 -1640 q 765 -1694 810 -1660 q 604 -1950 636 -1797 q 600 -1974 601 -1962 q 596 -1993 597 -1990 l 594 -2440 l 594 -2443 q 589 -2918 593 -2899 q 586 -2932 590 -2912 q 319 -3236 542 -3119 q 257 -3265 289 -3251 l 232 -3276 l 213 -3276 q 183 -3269 186 -3276 l 183 -3225 q 206 -3210 185 -3222 q 332 -3117 278 -3171 q 426 -2964 397 -3050 q 442 -2903 432 -2947 q 444 -2443 443 -2892 q 446 -1994 444 -2421 q 450 -1972 447 -1993 q 654 -1679 479 -1803 q 756 -1621 701 -1647 l 778 -1610 l 760 -1601 q 639 -1529 692 -1571 q 450 -1247 478 -1411 q 446 -1226 447 -1228 l 444 -779 l 444 -776 q 442 -318 443 -329 q 332 -104 419 -194 q 206 -11 278 -50 q 183 4 185 1 q 182 26 182 6 q 189 54 182 49 z "},"Ü":{"ha":1042,"x_min":175,"x_max":914,"o":"m 853 53 q 888 51 868 60 q 910 29 903 44 q 913 10 913 22 l 914 -1 l 594 -800 q 272 -1606 269 -1611 l 271 -1611 l 592 -2414 l 914 -3215 l 914 -3228 q 901 -3261 914 -3247 q 871 -3276 889 -3274 q 829 -3254 842 -3279 q 500 -2436 826 -3250 l 175 -1624 l 175 -1611 l 175 -1597 l 500 -785 q 829 35 826 32 q 853 53 836 47 z "},"ß":{"ha":1450,"x_min":78,"x_max":1375,"o":"m 103 54 q 143 40 126 61 q 551 -1043 146 38 l 1164 -2675 q 1372 -3236 1372 -3229 q 1353 -3271 1375 -3258 q 1335 -3275 1346 -3275 q 1306 -3261 1314 -3275 q 285 -546 1299 -3250 q 78 19 78 8 q 82 36 78 29 q 103 54 89 50 z "},"ï":{"ha":1100,"x_min":329,"x_max":1056,"o":"m 994 54 q 1021 56 997 56 l 1044 56 l 1049 51 q 1047 31 1056 44 q 1031 8 1043 25 q 531 -1357 626 -508 q 507 -1661 515 -1503 q 499 -2026 499 -1821 q 503 -2318 499 -2225 q 700 -3456 531 -2986 q 1031 -4062 824 -3799 q 1053 -4101 1056 -4096 q 1049 -4106 1051 -4103 l 1044 -4110 l 1022 -4110 q 996 -4108 997 -4110 q 933 -4040 988 -4104 q 535 -3361 683 -3757 q 338 -2346 371 -2926 q 329 -2026 329 -2207 q 338 -1707 329 -1847 q 535 -692 371 -1129 q 933 -14 683 -296 q 994 54 968 28 z "},"ÿ":{"ha":1081,"x_min":79,"x_max":1001,"o":"m 357 -253 l 357 0 l 388 0 l 417 0 l 417 -281 l 417 -562 l 433 -579 q 526 -697 488 -639 q 540 -717 539 -715 l 554 -697 q 647 -579 593 -639 l 664 -562 l 664 -281 l 664 0 l 693 0 l 724 0 l 724 -253 l 725 -506 l 739 -494 q 926 -374 829 -421 q 999 -343 972 -350 l 1001 -342 l 1001 -371 l 1001 -401 l 983 -408 q 883 -457 940 -424 q 567 -779 679 -574 q 551 -810 558 -794 q 540 -832 540 -831 l 529 -810 q 224 -474 426 -599 q 197 -457 211 -465 q 97 -408 140 -424 l 79 -401 l 79 -371 l 79 -342 l 82 -343 q 154 -374 108 -350 q 343 -494 250 -419 l 357 -506 l 357 -253 z "}}}
